<?xml version="1.0" encoding="UTF-8" standalone="no"?>
<svg width="21px" height="39px" viewBox="0 0 21 39" version="1.1" xmlns="http://www.w3.org/2000/svg" xmlns:xlink="http://www.w3.org/1999/xlink">
    <!-- Generator: Sketch 3.6.1 (26313) - http://www.bohemiancoding.com/sketch -->
    <title>Page 1</title>
    <desc>Created with Sketch.</desc>
    <defs></defs>
    <g id="GOV.AU-UDG-v0.1-[Online]" stroke="none" stroke-width="1" fill="none" fill-rule="evenodd">
        <g id="Patterns" transform="translate(-1223.000000, -573.000000)" fill="#244A61">
            <g id="Group" transform="translate(1175.000000, 251.000000)">
                <path d="M66.7262899,354.935928 L49.3602899,354.935928 L49.3602899,326.312855 L66.7262899,326.312855 L66.7262899,354.935928 Z M58.0430145,359.536527 C57.1904928,359.536527 56.4993333,358.844952 56.4993333,357.994925 C56.4993333,357.143247 57.1904928,356.453873 58.0430145,356.453873 C58.8955362,356.453873 59.5872464,357.143247 59.5872464,357.994925 C59.5872464,358.844952 58.8955362,359.536527 58.0430145,359.536527 L58.0430145,359.536527 Z M55.8737101,324.835073 L60.213971,324.835073 L60.213971,325.210846 L55.8737101,325.210846 L55.8737101,324.835073 Z M58.0435652,323.192238 C58.3326957,323.192238 58.5673043,323.426615 58.5673043,323.715459 C58.5673043,324.004303 58.3326957,324.238679 58.0435652,324.238679 C57.7544348,324.238679 57.5198261,324.004303 57.5198261,323.715459 C57.5198261,323.426615 57.7544348,323.192238 58.0435652,323.192238 L58.0435652,323.192238 Z M66.9851304,322 L49.1014493,322 C48.4956522,322 48,322.495161 48,323.100358 L48,359.885891 C48,360.491088 48.4956522,360.986249 49.1014493,360.986249 L66.9851304,360.986249 C67.5909275,360.986249 68.0865797,360.491088 68.0865797,359.885891 L68.0865797,323.100358 C68.0865797,322.495161 67.5909275,322 66.9851304,322 L66.9851304,322 Z" id="Page-1"></path>
            </g>
        </g>
    </g>
</svg>