<?xml version="1.0" encoding="UTF-8" standalone="no"?>
<svg width="90px" height="63px" viewBox="0 0 90 63" version="1.1" xmlns="http://www.w3.org/2000/svg" xmlns:xlink="http://www.w3.org/1999/xlink">
    <!-- Generator: Sketch 3.6.1 (26313) - http://www.bohemiancoding.com/sketch -->
    <title>Page 1</title>
    <desc>Created with Sketch.</desc>
    <defs></defs>
    <g id="GOV.AU-UDG-v0.1-[Online]" stroke="none" stroke-width="1" fill="none" fill-rule="evenodd">
        <g id="Patterns" transform="translate(-1188.000000, -264.000000)" fill="#244A61">
            <g id="Group" transform="translate(1175.000000, 251.000000)">
                <g id="Page-1" transform="translate(13.000000, 13.000000)">
                    <path d="M85.3778261,51.3961946 L4.45217391,51.3961946 L4.45217391,4.3543246 L85.3778261,4.3543246 L85.3778261,51.3961946 Z M44.9147826,1.59788548 C45.2913043,1.59788548 45.5965217,1.90160504 45.5965217,2.27594698 C45.5965217,2.64942238 45.2913043,2.9535752 44.9147826,2.9535752 C44.5391304,2.9535752 44.2347826,2.64942238 44.2347826,2.27594698 C44.2347826,1.90160504 44.5391304,1.59788548 44.9147826,1.59788548 L44.9147826,1.59788548 Z M88.9608696,0.133012702 L0.869565217,0.133012702 C0.391304348,0.133012702 0,0.522952218 0,0.99954496 L0,54.7492411 C0,55.2258339 0.391304348,55.6157734 0.869565217,55.6157734 L41.3226087,55.6157734 C41.3186957,55.6227056 41.3117391,55.6287714 41.3082609,55.6357036 L38.846087,60.6121984 C38.7404348,60.8257986 38.4686957,61.0632284 38.2421739,61.1394833 L33.6595652,62.6845103 C33.4330435,62.7611984 33.4434783,62.8235887 33.6826087,62.8235887 L43.0578261,62.8235887 L43.9273913,62.8235887 L45.9030435,62.8235887 L46.7726087,62.8235887 L56.1469565,62.8235887 C56.386087,62.8235887 56.3965217,62.7611984 56.17,62.6845103 L51.5882609,61.1394833 C51.3617391,61.0632284 51.09,60.8257986 50.983913,60.6121984 L48.5213043,55.6357036 C48.5178261,55.6287714 48.5108696,55.6227056 48.5073913,55.6157734 L88.9608696,55.6157734 C89.4391304,55.6157734 89.8304348,55.2258339 89.8304348,54.7492411 L89.8304348,0.99954496 C89.8304348,0.522952218 89.4391304,0.133012702 88.9608696,0.133012702 L88.9608696,0.133012702 Z" id="Fill-1"></path>
                    <path id="Fill-3" d="M0,0.133142681 L34.9308696,0.133142681"></path>
                </g>
            </g>
        </g>
    </g>
</svg>
