<?xml version="1.0" encoding="UTF-8" standalone="no"?>
<svg width="80px" height="43px" viewBox="0 0 80 43" version="1.1" xmlns="http://www.w3.org/2000/svg" xmlns:xlink="http://www.w3.org/1999/xlink">
    <!-- Generator: Sketch 3.6.1 (26313) - http://www.bohemiancoding.com/sketch -->
    <title>Page 1</title>
    <desc>Created with Sketch.</desc>
    <defs></defs>
    <g id="GOV.AU-UDG-v0.1-[Online]" stroke="none" stroke-width="1" fill="none" fill-rule="evenodd">
        <g id="Patterns" transform="translate(-1193.000000, -374.000000)" fill="#244A61">
            <g id="Group" transform="translate(1175.000000, 251.000000)">
                <g id="Page-1" transform="translate(18.000000, 123.000000)">
                    <path d="M46.3161739,39.0649206 L78.5773913,39.0649206 C79.0556522,39.0649206 79.4469565,39.4548601 79.4469565,39.9314529 L79.4469565,41.5934617 C79.4469565,42.0700545 79.0556522,42.459994 78.5773913,42.459994 L0.869565217,42.459994 C0.391304348,42.459994 0,42.0700545 0,41.5934617 L0,39.9314529 C0,39.4548601 0.391304348,39.0649206 0.869565217,39.0649206 L33.1305217,39.0649206 L33.1305217,39.4981867 L33.1305217,39.8569311 C33.1305217,40.0952275 33.3261739,40.2901972 33.5653043,40.2901972 L45.8813913,40.2901972 C46.1205217,40.2901972 46.3161739,40.0952275 46.3161739,39.8569311 L46.3161739,39.4981867 L46.3161739,39.0649206 Z" id="Fill-1"></path>
                    <path d="M68.4466087,35.3395251 C68.4466087,35.5778215 68.2509565,35.7727912 68.0118261,35.7727912 L11.4348696,35.7727912 C11.1957391,35.7727912 11.000087,35.5778215 11.000087,35.3395251 L11.000087,3.06293157 C11.000087,2.8246352 11.1957391,2.62966544 11.4348696,2.62966544 L68.0118261,2.62966544 C68.2509565,2.62966544 68.4466087,2.8246352 68.4466087,3.06293157 L68.4466087,35.3395251 Z M39.7235652,0.964190444 C39.9035652,0.964190444 40.0509565,1.10976786 40.0509565,1.29043984 C40.0509565,1.47024528 39.9035652,1.61538944 39.7235652,1.61538944 C39.5431304,1.61538944 39.3974783,1.47024528 39.3974783,1.29043984 C39.3974783,1.10976786 39.5431304,0.964190444 39.7235652,0.964190444 L39.7235652,0.964190444 Z M8.62965217,0.0980914516 C8.39052174,0.0980914516 8.19486957,0.29306121 8.19486957,0.531357581 L8.19486957,37.8710991 C8.19486957,38.1093955 8.39052174,38.3043652 8.62965217,38.3043652 L70.8170435,38.3043652 C71.0561739,38.3043652 71.2518261,38.1093955 71.2518261,37.8710991 L71.2518261,0.531357581 C71.2518261,0.29306121 71.0561739,0.0980914516 70.8170435,0.0980914516 L8.62965217,0.0980914516 Z" id="Fill-5"></path>
                </g>
            </g>
        </g>
    </g>
</svg>