<?xml version="1.0" encoding="UTF-8" standalone="no"?>
<svg width="38px" height="52px" viewBox="0 0 38 52" version="1.1" xmlns="http://www.w3.org/2000/svg" xmlns:xlink="http://www.w3.org/1999/xlink">
    <!-- Generator: Sketch 3.6.1 (26313) - http://www.bohemiancoding.com/sketch -->
    <title>Page 1</title>
    <desc>Created with Sketch.</desc>
    <defs>
        <path id="path-1" d="M0,0.450046595 L37.1673043,0.450046595 L37.1673043,51.1666667 L0,51.1666667 L0,0.450046595 Z"></path>
    </defs>
    <g id="GOV.AU-UDG-v0.1-[Online]" stroke="none" stroke-width="1" fill="none" fill-rule="evenodd">
        <g id="Patterns" transform="translate(-1214.000000, -465.000000)">
            <g id="Group" transform="translate(1175.000000, 251.000000)">
                <g id="Page-1" transform="translate(39.000000, 214.000000)">
                    <mask id="mask-2" fill="white">
                        <use xlink:href="#path-1"></use>
                    </mask>
                    <g id="Clip-2"></g>
                    <path d="M34.5811014,44.0704552 L2.58565217,44.0704552 L2.58565217,6.74794803 L34.5811014,6.74794803 L34.5811014,44.0704552 Z M18.5836522,49.4666129 C17.584087,49.4666129 16.7728696,48.6556487 16.7728696,47.6581738 C16.7728696,46.6601487 17.584087,45.8497348 18.5836522,45.8497348 C19.5854203,45.8497348 20.3944348,46.6601487 20.3944348,47.6581738 C20.3944348,48.6556487 19.5854203,49.4666129 18.5836522,49.4666129 L18.5836522,49.4666129 Z M18.5836522,2.74759498 C19.0049565,2.74759498 19.3447536,3.08980645 19.3447536,3.50959319 C19.3447536,3.92772939 19.0049565,4.2688405 18.5836522,4.2688405 C18.1634493,4.2688405 17.822,3.92772939 17.822,3.50959319 C17.822,3.08980645 18.1634493,2.74759498 18.5836522,2.74759498 L18.5836522,2.74759498 Z M36.0658551,0.450046595 L1.10144928,0.450046595 C0.495652174,0.450046595 0,0.945207885 0,1.55040502 L0,50.0663082 C0,50.6715054 0.495652174,51.1666667 1.10144928,51.1666667 L36.0658551,51.1666667 C36.6716522,51.1666667 37.1673043,50.6715054 37.1673043,50.0663082 L37.1673043,1.55040502 C37.1673043,0.945207885 36.6716522,0.450046595 36.0658551,0.450046595 L36.0658551,0.450046595 Z" id="Fill-1" fill="#244A61" mask="url(#mask-2)"></path>
                </g>
            </g>
        </g>
    </g>
</svg>